<svg xmlns="http://www.w3.org/2000/svg" width="47" height="48" fill="none"><rect width="47" height="47.125" fill="#26b67c" fill-opacity=".15" rx="8"></rect><path stroke="#26B67C" stroke-width="2" d="M27.234 18.089a4.18 4.18 0 0 1-4.164 4.164 4.18 4.18 0 0 1-4.165-4.164 4.18 4.18 0 0 1 4.165-4.165 4.18 4.18 0 0 1 4.164 4.165Zm-.582 0a3.59 3.59 0 0 0-3.582-3.583 3.59 3.59 0 0 0-3.583 3.583 3.59 3.59 0 0 0 3.583 3.582 3.59 3.59 0 0 0 3.582-3.582Z"></path><mask id="a" fill="#fff"><path d="M11.32 35.39c.387.56 1.119.819 1.764.646l3.788-.903.99 3.744a1.65 1.65 0 0 0 1.42 1.248h.258a1.68 1.68 0 0 0 1.464-.818l2.625-4.303 2.367 3.873c.302.517.861.818 1.464.818h.258c.689-.086 1.248-.603 1.42-1.291l.99-3.745 3.788.904a1.637 1.637 0 0 0 1.764-.646c.388-.56.43-1.29.087-1.893l-4.434-7.274c.388-.215.775-.517 1.033-.904a3 3 0 0 0 .172-3.314c-.086-.172-.042-.302-.042-.388 0-.086.085-.215.258-.258a3.011 3.011 0 0 0 1.85-2.797c0-1.249-.688-2.282-1.85-2.798-.172-.086-.215-.215-.258-.258-.044-.043-.044-.215.042-.388.646-1.076.56-2.324-.172-3.314-.731-.99-1.936-1.463-3.142-1.162a.371.371 0 0 1-.344-.086c-.043-.043-.172-.13-.172-.301v-.043c-.13-1.205-.904-2.238-2.066-2.583-1.162-.387-2.367-.043-3.228.904-.13.13-.258.172-.344.172-.087 0-.216 0-.345-.172a3.035 3.035 0 0 0-3.228-.86c-1.162.387-1.98 1.377-2.066 2.625 0 .172-.129.258-.172.344-.043.043-.172.13-.387.086-1.205-.258-2.41.172-3.1 1.162a3 3 0 0 0-.171 3.314c.086.173.043.302.043.388 0 .086-.086.215-.258.258a3.011 3.011 0 0 0-1.851 2.798c0 1.248.688 2.28 1.85 2.797.173.086.216.215.259.258.043.044.043.216-.043.388-.646 1.076-.56 2.324.172 3.314.473.689 1.205 1.076 1.98 1.205l-4.52 7.36a1.772 1.772 0 0 0 .087 1.894Zm18.12-3.442a1.283 1.283 0 0 0-1.55.947l-.775 3.012-1.98-3.314 2.454-4.046c.645-.516 1.033-1.248 1.119-2.109l3.788 6.198-3.056-.688ZM14.418 18.476c-.258-.086-.258-.301-.258-.43a.48.48 0 0 1 .258-.43 2.978 2.978 0 0 0 1.679-1.852 3.174 3.174 0 0 0-.258-2.496c-.13-.215-.043-.387.043-.517.086-.085.215-.215.473-.172.861.172 1.722 0 2.454-.516a3.105 3.105 0 0 0 1.248-2.195c.043-.258.215-.344.301-.388.086-.043.301-.043.473.13a3.068 3.068 0 0 0 2.282 1.033c.86 0 1.721-.388 2.28-1.033.173-.173.388-.173.474-.13.086.044.302.13.302.345v.043c.086.86.516 1.678 1.248 2.152.688.516 1.592.689 2.453.516.258-.043.387.086.473.173.087.086.173.258 0 .516a2.971 2.971 0 0 0-.258 2.496c.258.818.861 1.507 1.679 1.851.258.086.258.301.258.43 0 .13-.043.302-.258.43a2.978 2.978 0 0 0-1.679 1.852 3.174 3.174 0 0 0 .258 2.496c.13.215.044.387-.043.517-.086.085-.215.215-.473.172-.86-.172-1.722 0-2.453.516a3.105 3.105 0 0 0-1.248 2.195.494.494 0 0 1-.302.387c-.086.044-.301.044-.473-.129a3.068 3.068 0 0 0-2.281-1.033c-.861 0-1.722.388-2.282 1.033-.172.173-.387.173-.473.13-.086-.044-.301-.13-.301-.345v-.043c-.086-.86-.517-1.678-1.248-2.152-.517-.387-1.162-.56-1.765-.56-.215 0-.43.044-.689.087-.258.043-.387-.086-.473-.172-.086-.086-.172-.259 0-.517.43-.732.56-1.636.258-2.496-.258-.861-.86-1.507-1.679-1.894Zm3.4 9.168a2.79 2.79 0 0 0 1.722 1.377c1.162.387 2.41.043 3.228-.904.13-.13.259-.172.345-.172.086 0 .215 0 .344.172.258.301.602.56.947.732l-4.52 7.446-.774-3.013c-.172-.689-.86-1.076-1.55-.947l-3.012.689 3.27-5.38Z"></path></mask><path stroke="#26B67C" stroke-width="4" d="M11.32 35.39c.387.56 1.119.819 1.764.646l3.788-.903.99 3.744a1.65 1.65 0 0 0 1.42 1.248h.258a1.68 1.68 0 0 0 1.464-.818l2.625-4.303 2.367 3.873c.302.517.861.818 1.464.818h.258c.689-.086 1.248-.603 1.42-1.291l.99-3.745 3.788.904a1.637 1.637 0 0 0 1.764-.646c.388-.56.43-1.29.087-1.893l-4.434-7.274c.388-.215.775-.517 1.033-.904a3 3 0 0 0 .172-3.314c-.086-.172-.042-.302-.042-.388 0-.086.085-.215.258-.258a3.011 3.011 0 0 0 1.85-2.797c0-1.249-.688-2.282-1.85-2.798-.172-.086-.215-.215-.258-.258-.044-.043-.044-.215.042-.388.646-1.076.56-2.324-.172-3.314-.731-.99-1.936-1.463-3.142-1.162a.371.371 0 0 1-.344-.086c-.043-.043-.172-.13-.172-.301v-.043c-.13-1.205-.904-2.238-2.066-2.583-1.162-.387-2.367-.043-3.228.904-.13.13-.258.172-.344.172-.087 0-.216 0-.345-.172a3.035 3.035 0 0 0-3.228-.86c-1.162.387-1.98 1.377-2.066 2.625 0 .172-.129.258-.172.344-.043.043-.172.13-.387.086-1.205-.258-2.41.172-3.1 1.162a3 3 0 0 0-.171 3.314c.086.173.043.302.043.388 0 .086-.086.215-.258.258a3.011 3.011 0 0 0-1.851 2.798c0 1.248.688 2.28 1.85 2.797.173.086.216.215.259.258.043.044.043.216-.043.388-.646 1.076-.56 2.324.172 3.314.473.689 1.205 1.076 1.98 1.205l-4.52 7.36a1.772 1.772 0 0 0 .087 1.894Zm18.12-3.442a1.283 1.283 0 0 0-1.55.947l-.775 3.012-1.98-3.314 2.454-4.046c.645-.516 1.033-1.248 1.119-2.109l3.788 6.198-3.056-.688ZM14.418 18.476c-.258-.086-.258-.301-.258-.43a.48.48 0 0 1 .258-.43 2.978 2.978 0 0 0 1.679-1.852 3.174 3.174 0 0 0-.258-2.496c-.13-.215-.043-.387.043-.517.086-.085.215-.215.473-.172.861.172 1.722 0 2.454-.516a3.105 3.105 0 0 0 1.248-2.195c.043-.258.215-.344.301-.388.086-.043.301-.043.473.13a3.068 3.068 0 0 0 2.282 1.033c.86 0 1.721-.388 2.28-1.033.173-.173.388-.173.474-.13.086.044.302.13.302.345v.043c.086.86.516 1.678 1.248 2.152.688.516 1.592.689 2.453.516.258-.043.387.086.473.173.087.086.173.258 0 .516a2.971 2.971 0 0 0-.258 2.496c.258.818.861 1.507 1.679 1.851.258.086.258.301.258.43 0 .13-.043.302-.258.43a2.978 2.978 0 0 0-1.679 1.852 3.174 3.174 0 0 0 .258 2.496c.13.215.044.387-.043.517-.086.085-.215.215-.473.172-.86-.172-1.722 0-2.453.516a3.105 3.105 0 0 0-1.248 2.195.494.494 0 0 1-.302.387c-.086.044-.301.044-.473-.129a3.068 3.068 0 0 0-2.281-1.033c-.861 0-1.722.388-2.282 1.033-.172.173-.387.173-.473.13-.086-.044-.301-.13-.301-.345v-.043c-.086-.86-.517-1.678-1.248-2.152-.517-.387-1.162-.56-1.765-.56-.215 0-.43.044-.689.087-.258.043-.387-.086-.473-.172-.086-.086-.172-.259 0-.517.43-.732.56-1.636.258-2.496-.258-.861-.86-1.507-1.679-1.894Zm3.4 9.168a2.79 2.79 0 0 0 1.722 1.377c1.162.387 2.41.043 3.228-.904.13-.13.259-.172.345-.172.086 0 .215 0 .344.172.258.301.602.56.947.732l-4.52 7.446-.774-3.013c-.172-.689-.86-1.076-1.55-.947l-3.012.689 3.27-5.38Z" mask="url(#a)"></path></svg>