<svg id="visual" viewBox="0 0 900 600" width="900" height="600" xmlns="http://www.w3.org/2000/svg" xmlns:xlink="http://www.w3.org/1999/xlink" version="1.1"><rect x="0" y="0" width="900" height="600" fill="#ffffff"></rect><path d="M0 203L37.5 206.2C75 209.3 150 215.7 225 222.8C300 230 375 238 450 231C525 224 600 202 675 203.7C750 205.3 825 230.7 862.5 243.3L900 256L900 0L862.5 0C825 0 750 0 675 0C600 0 525 0 450 0C375 0 300 0 225 0C150 0 75 0 37.5 0L0 0Z" fill="#accdff" stroke-linecap="round" stroke-linejoin="miter"></path></svg>